<svg xmlns="http://www.w3.org/2000/svg" xmlns:xlink="http://www.w3.org/1999/xlink" width="128px" height="128px" viewBox="0 0 128 128" version="1.1">
<g id="surface1">
<path style=" stroke:none;fill-rule:nonzero;fill:rgb(0%,42.352941%,40%);fill-opacity:1;" d="M 63.996094 0 C 28.648438 0 -0.00390625 28.652344 -0.00390625 64 C -0.00390625 99.347656 28.648438 128 63.996094 128 C 99.339844 128 127.996094 99.347656 127.996094 64 C 127.996094 28.652344 99.339844 0 63.996094 0 Z M 63.996094 126.210938 C 29.636719 126.210938 1.785156 98.359375 1.785156 64 C 1.785156 29.640625 29.636719 1.789062 63.996094 1.789062 C 98.355469 1.785156 126.210938 29.640625 126.210938 63.996094 C 126.210938 98.359375 98.355469 126.214844 63.996094 126.210938 Z M 63.996094 126.210938 "/>
<path style=" stroke:none;fill-rule:nonzero;fill:rgb(0%,42.352941%,40%);fill-opacity:1;" d="M 101.707031 59.085938 C 100.816406 57.226562 101.425781 56.007812 101.160156 54.644531 C 100.96875 53.644531 99.472656 50.339844 98.523438 48.046875 C 98.074219 46.96875 100.828125 47.230469 98.792969 43.351562 C 98.734375 43.238281 101.621094 42.167969 98.734375 39.980469 C 97.296875 38.835938 96.066406 37.457031 95.09375 35.894531 C 94.90625 35.660156 94.914062 35.324219 95.113281 35.101562 C 95.898438 34.589844 96.363281 33.707031 96.339844 32.769531 C 96.320312 31.832031 95.816406 30.972656 95.007812 30.5 C 93.730469 29.730469 92.261719 30.511719 90.910156 31.386719 C 90.46875 31.671875 90.246094 31.847656 89.777344 31.660156 C 89.394531 31.457031 89.027344 31.222656 88.675781 30.960938 C 89.757812 30.121094 90.429688 28.867188 90.535156 27.5 C 88.460938 26.953125 86.253906 27.171875 84.328125 28.113281 L 84.089844 27.964844 C 84.980469 26.738281 85.175781 25.136719 84.597656 23.734375 C 86.796875 20.734375 89.328125 17.992188 92.144531 15.558594 L 92.199219 15.5 C 92.363281 15.332031 92.425781 15.152344 92.109375 14.957031 C 91.847656 14.792969 91.777344 14.75 91.457031 14.578125 C 73.945312 4.875 52.609375 5.148438 35.359375 15.304688 C 18.105469 25.460938 7.507812 43.980469 7.492188 64 C 7.710938 82.386719 16.671875 99.574219 31.628906 110.273438 C 32.152344 110.667969 32.71875 111.003906 33.316406 111.269531 C 33.539062 111.386719 33.8125 111.335938 33.976562 111.148438 L 34.203125 110.859375 C 34.332031 110.714844 34.402344 110.53125 34.410156 110.339844 C 34.410156 109.929688 33.8125 109.558594 33.109375 108.519531 C 31.257812 105.78125 30.242188 102.558594 30.191406 99.25 C 30.15625 96.234375 31.132812 93.296875 32.972656 90.90625 C 35.21875 93.253906 40.144531 97.574219 40.039062 101.503906 C 39.917969 105.921875 35.789062 105.703125 36.679688 109.011719 C 37.238281 111.089844 38.792969 110.238281 39.058594 111.8125 C 39.851562 114.316406 42.167969 116.023438 44.792969 116.046875 C 45.179688 115.988281 45.511719 116.308594 46.277344 117.089844 C 47.769531 117.980469 49.558594 118.246094 51.246094 117.828125 C 52.378906 117.621094 53.804688 118.65625 56.171875 118.394531 C 59.140625 118.066406 59.894531 117.835938 61.15625 117.820312 C 68.535156 117.648438 75.917969 118.015625 83.246094 118.910156 C 84.675781 119.136719 85.125 118.503906 84.492188 117.378906 C 81.601562 112.824219 80.976562 107.1875 82.804688 102.113281 C 87.371094 102.914062 92.078125 102.042969 96.054688 99.660156 C 98.019531 98.371094 99.191406 96.171875 99.167969 93.828125 C 98.863281 92.476562 98.757812 91.085938 98.847656 89.707031 C 99.289062 88.039062 99.617188 88.070312 100.09375 87.738281 C 102.304688 86.179688 100.707031 84.949219 100.367188 84.824219 C 101.3125 84.230469 101.601562 82.984375 101.011719 82.039062 L 100.996094 82.015625 C 100.601562 81.59375 99.398438 78.207031 100.792969 77.503906 C 102.292969 76.738281 104.003906 76.417969 105.730469 75.664062 C 107.144531 75.066406 107.804688 73.433594 107.207031 72.019531 L 107.179688 71.953125 C 106.375 69.746094 101.847656 59.375 101.707031 59.085938 Z M 39.335938 109.390625 C 38.902344 109.476562 37.511719 109.527344 37.824219 107.703125 C 38.015625 106.578125 39.238281 106.105469 39.863281 106.746094 C 39.726562 107.621094 39.421875 108.472656 39.335938 109.390625 Z M 92.597656 32.273438 C 93.324219 31.8125 94.113281 31.617188 94.574219 32.066406 C 96.179688 33.652344 92.832031 34.546875 93.53125 35.765625 C 94.71875 37.75 96.269531 39.496094 98.097656 40.914062 C 98.851562 41.496094 98.964844 42.804688 96.078125 43.40625 C 93.191406 44.007812 81.609375 47.050781 75.511719 53.515625 C 67.871094 61.609375 63.015625 72.09375 62.351562 70.652344 C 61.6875 69.207031 60.152344 68.964844 60.390625 68.554688 C 71.359375 49.660156 88.550781 34.816406 92.597656 32.273438 Z M 97.625 45.550781 C 96.996094 47.355469 92.011719 48.949219 92.25 47.691406 C 92.355469 47.125 92.25 46.367188 92.640625 46.300781 C 93.191406 46.207031 94.765625 45.65625 97.214844 45.027344 C 97.457031 44.964844 97.78125 45.101562 97.621094 45.550781 Z M 84.988281 48.820312 C 84.863281 48.082031 90.222656 46.285156 90.40625 46.816406 C 90.746094 47.800781 89.296875 50.441406 87.507812 51.105469 C 85.46875 51.855469 84.621094 51.632812 84.699219 51.34375 C 84.933594 50.523438 85.03125 49.671875 84.988281 48.824219 Z M 72.5625 76.746094 C 70.101562 78.253906 68.765625 75.371094 68.417969 74.867188 C 68.039062 74.292969 67.921875 73.59375 68.089844 72.929688 C 68.355469 71.03125 68.269531 69.101562 67.835938 67.234375 C 67.589844 65.617188 70.9375 61.605469 71.6875 60.902344 C 72.441406 60.199219 73.613281 61.265625 73.683594 62.453125 C 73.769531 64.257812 72.832031 65.957031 71.261719 66.851562 C 69.675781 68.03125 69.378906 69.570312 69.675781 69.976562 C 69.789062 70.136719 70.503906 70.140625 70.816406 69.476562 C 71.773438 67.445312 74.496094 66.417969 74.933594 65.359375 C 75.34375 64.261719 75.382812 63.058594 75.046875 61.933594 C 74.988281 61.320312 75.585938 61.167969 76.035156 61.234375 C 76.617188 61.320312 76.875 62.109375 77.167969 62.867188 C 78.929688 67.460938 74.492188 70.238281 73.777344 71.328125 C 73.460938 71.835938 74.476562 75.566406 72.5625 76.746094 Z M 76.277344 58.929688 C 74.957031 59.828125 73.054688 58.609375 73.433594 58.070312 C 75.339844 55.40625 77.722656 53.121094 80.457031 51.320312 C 82.558594 50.011719 82.78125 49.921875 82.890625 50.660156 C 82.992188 52.34375 82.414062 54 81.285156 55.253906 C 80.367188 56.226562 79.097656 56.792969 77.757812 56.828125 C 77.265625 56.933594 77.292969 58.238281 76.277344 58.929688 Z M 64.484375 74.613281 C 63.875 74.480469 63.65625 73.296875 63.777344 72.828125 C 64.417969 71.410156 65.242188 70.082031 66.226562 68.882812 C 66.371094 68.695312 66.664062 68.867188 66.699219 69.085938 C 67.042969 71.59375 66.691406 75.097656 64.484375 74.613281 Z M 84.179688 29.226562 C 85.625 28.578125 87.1875 28.242188 88.765625 28.242188 C 89.269531 28.300781 87.648438 31.1875 84.761719 32.421875 C 83.0625 33.277344 81.203125 33.746094 79.308594 33.808594 C 78.925781 33.617188 81.828125 30.285156 84.179688 29.226562 Z M 33.191406 77.132812 C 32.722656 76.496094 32.109375 75.976562 31.402344 75.617188 C 30.292969 77.261719 29.550781 79.125 29.230469 81.085938 C 26.410156 75.8125 24.84375 69.964844 24.652344 63.992188 C 23.796875 42.308594 41.949219 24.867188 64.101562 24.941406 C 68.824219 24.933594 73.5 25.886719 77.84375 27.734375 C 76.902344 28.972656 76.144531 30.34375 75.597656 31.800781 C 75.574219 30.625 75.265625 29.714844 75.351562 28.980469 C 75.40625 28.527344 72.214844 29.523438 69.378906 34.035156 C 68.765625 35.042969 68.320312 36.148438 68.0625 37.300781 C 68.097656 36.277344 67.902344 35.257812 67.488281 34.320312 C 65.113281 35.355469 63.242188 37.289062 62.277344 39.695312 C 61.992188 40.375 61.765625 41.074219 61.609375 41.792969 C 61.59375 41.09375 61.402344 40.410156 61.058594 39.800781 C 58.628906 40.828125 56.722656 42.800781 55.78125 45.261719 C 55.421875 46.160156 55.1875 47.105469 55.089844 48.070312 C 54.789062 46.65625 54.242188 45.792969 54.070312 46.011719 C 52.902344 47.496094 50.617188 48.152344 49.402344 51.898438 C 49.136719 52.734375 49 53.601562 48.992188 54.476562 C 48.492188 53.210938 47.785156 52.480469 47.621094 52.515625 C 45.503906 54.210938 44 56.546875 43.328125 59.171875 C 43.148438 60.34375 43.171875 61.539062 43.402344 62.699219 C 42.660156 61.796875 42.023438 60.8125 41.507812 59.765625 C 39.460938 61.363281 38.171875 63.738281 37.945312 66.324219 C 37.921875 67.585938 38.074219 68.84375 38.398438 70.0625 C 37.898438 68.949219 37.007812 68.058594 35.894531 67.5625 C 34.1875 69.421875 33.148438 71.800781 32.949219 74.316406 C 32.84375 75.261719 32.925781 76.21875 33.191406 77.132812 Z M 78.550781 28.355469 C 79.863281 26.730469 81.609375 25.511719 83.585938 24.832031 C 83.492188 26.835938 82.632812 28.730469 81.179688 30.113281 C 79.640625 31.632812 77.863281 32.894531 75.917969 33.835938 C 76.316406 31.816406 77.222656 29.929688 78.546875 28.355469 Z M 72.902344 36.339844 C 71.503906 37.394531 70.328125 38.710938 69.445312 40.222656 C 69.105469 40.769531 68.289062 37.175781 70.484375 33.730469 C 71.492188 32.179688 72.855469 30.890625 74.457031 29.972656 C 74.257812 30.824219 75.757812 34.011719 72.898438 36.339844 Z M 66.691406 40.933594 C 64.617188 44.019531 64.5 42.964844 62.234375 45.984375 C 62.066406 44.042969 62.285156 42.089844 62.875 40.234375 C 63.65625 38.355469 64.984375 36.757812 66.691406 35.648438 C 67.472656 37.324219 67.472656 39.257812 66.6875 40.933594 Z M 59.910156 47.105469 C 58.84375 48.964844 57.871094 48.535156 56.105469 51.175781 C 55.902344 51.46875 55.4375 48.996094 56.5 45.660156 C 57.164062 43.859375 58.449219 42.355469 60.125 41.421875 C 60.527344 41.320312 61.175781 44.898438 59.910156 47.105469 Z M 53.597656 53.644531 C 52.867188 55.144531 51.828125 56.476562 50.554688 57.554688 C 50.339844 57.808594 49.394531 55.308594 50.308594 52.167969 C 50.921875 50.441406 52.050781 48.945312 53.539062 47.878906 C 53.859375 47.539062 54.746094 51.140625 53.597656 53.65625 Z M 48.464844 57.691406 C 48.46875 58.316406 48.367188 58.9375 48.167969 59.527344 C 47.484375 61.40625 46.394531 63.109375 44.972656 64.511719 C 44.375 63.40625 44.042969 62.179688 44 60.925781 C 44.03125 58.308594 45.1875 55.828125 47.171875 54.121094 C 47.636719 54.09375 48.457031 56.046875 48.457031 57.703125 Z M 43.230469 65.53125 C 43.144531 68.070312 42.023438 70.460938 40.125 72.152344 C 39.328125 70.726562 38.867188 69.136719 38.777344 67.507812 C 38.515625 65.289062 39.320312 63.078125 40.941406 61.542969 C 41.273438 62.652344 43.257812 63.523438 43.230469 65.539062 Z M 35.832031 69.363281 C 37.496094 70.46875 38.449219 72.382812 38.324219 74.378906 C 38.367188 76.632812 37.335938 78.773438 35.546875 80.144531 C 34.980469 77.917969 33.902344 77.453125 33.910156 75.238281 C 34 73.144531 34.664062 71.113281 35.832031 69.367188 Z M 40.289062 77.050781 C 42.171875 76.230469 44.238281 75.917969 46.28125 76.136719 C 45.824219 78.242188 44.511719 80.066406 42.660156 81.171875 C 40.84375 82.277344 38.695312 82.71875 36.589844 82.417969 C 36.925781 80.152344 38.292969 78.171875 40.289062 77.054688 Z M 40.082031 74.976562 C 40.820312 72.777344 42.375 70.945312 44.421875 69.855469 C 46.222656 69.070312 48.199219 68.761719 50.15625 68.957031 C 50.484375 69.09375 49.113281 72.375 46.589844 73.585938 C 43.757812 74.945312 42.628906 74.152344 40.074219 74.984375 Z M 44.285156 67.757812 C 45.328125 65.699219 46.894531 63.957031 48.828125 62.699219 C 50.542969 61.96875 52.417969 61.6875 54.273438 61.882812 C 53.6875 63.886719 52.308594 65.566406 50.457031 66.53125 C 48.554688 67.519531 46.410156 67.949219 44.273438 67.761719 Z M 49.738281 60.449219 C 50.980469 58.355469 52.742188 56.613281 54.847656 55.394531 C 56.46875 54.707031 58.246094 54.496094 59.980469 54.78125 C 59.421875 56.816406 57.980469 58.492188 56.050781 59.347656 C 54.054688 60.183594 51.898438 60.5625 49.738281 60.449219 Z M 56.277344 53.207031 C 57.226562 51.160156 58.820312 49.472656 60.808594 48.40625 C 62.585938 47.894531 64.46875 47.878906 66.25 48.367188 C 66.835938 48.40625 65.433594 51.136719 62.183594 52.332031 C 60.3125 53.085938 58.292969 53.382812 56.285156 53.203125 Z M 63.632812 46.234375 C 64.859375 44.324219 66.578125 42.78125 68.609375 41.769531 C 70.433594 41.234375 72.367188 41.1875 74.214844 41.628906 C 74.527344 41.761719 72.53125 44.746094 69.472656 45.664062 C 67.585938 46.269531 65.597656 46.460938 63.632812 46.230469 Z M 71.058594 40.203125 C 70.742188 39.976562 73.671875 36.699219 76.058594 35.792969 C 77.671875 35.179688 79.40625 34.96875 81.117188 35.179688 C 80.246094 37.050781 78.691406 38.515625 76.773438 39.277344 C 74.984375 40.082031 73.011719 40.398438 71.058594 40.203125 Z M 30.445312 107.0625 C 17.226562 96.660156 9.445312 80.820312 9.289062 64 C 9.316406 33.800781 33.792969 9.324219 63.992188 9.296875 C 72.824219 9.324219 81.527344 11.460938 89.363281 15.539062 C 89.425781 15.570312 89.46875 15.621094 89.488281 15.6875 C 89.507812 15.75 89.5 15.820312 89.46875 15.878906 C 89.457031 15.90625 89.4375 15.929688 89.414062 15.953125 C 87.148438 18.101562 85.0625 20.433594 83.183594 22.925781 C 77.179688 20.105469 70.625 18.652344 63.988281 18.667969 C 38.964844 18.695312 18.683594 38.972656 18.652344 64 C 18.542969 74.835938 22.425781 85.335938 29.558594 93.496094 C 28.800781 95.328125 28.417969 97.289062 28.425781 99.273438 C 28.40625 102 29.105469 104.6875 30.445312 107.0625 Z M 30.535156 91.851562 L 30.507812 91.878906 C 23.910156 84.097656 20.339844 74.199219 20.449219 64 C 20.457031 49.179688 28 35.378906 40.472656 27.367188 C 52.941406 19.359375 68.628906 18.238281 82.113281 24.394531 C 81.214844 24.816406 80.375 25.347656 79.609375 25.980469 C 74.671875 23.875 69.355469 22.808594 63.992188 22.851562 C 41.273438 22.871094 22.863281 41.28125 22.84375 64 C 22.691406 73.390625 25.914062 82.523438 31.925781 89.742188 C 31.585938 90.265625 31.097656 91.007812 30.535156 91.851562 Z M 32.703125 88.4375 C 31.226562 87.113281 30.273438 85.300781 30.015625 83.332031 C 30.015625 83.210938 30.003906 83.09375 30.003906 82.972656 C 30.015625 81.042969 30.515625 79.144531 31.457031 77.457031 C 31.746094 77.167969 34.722656 79.480469 34.765625 82.800781 C 34.761719 84.863281 34.03125 86.859375 32.703125 88.4375 Z M 37.605469 84.027344 C 39.398438 83.257812 41.375 83.019531 43.300781 83.332031 C 42.605469 85.339844 41.277344 87.066406 39.515625 88.25 C 37.882812 89.167969 35.96875 89.449219 34.140625 89.042969 C 35.578125 87.46875 35.277344 85.136719 37.613281 84.023438 Z M 40.800781 112.464844 C 40.382812 110.996094 40.492188 109.425781 41.113281 108.03125 C 42.171875 107.511719 44.113281 107.316406 44.144531 107.933594 C 43.816406 110.011719 43.878906 112.136719 44.328125 114.191406 C 44.140625 114.644531 41.496094 114.445312 40.816406 112.460938 Z M 40.976562 105.699219 C 40.773438 104.484375 41.9375 103.320312 41.914062 100.667969 C 41.882812 97.414062 37.875 92.957031 35.160156 90.089844 C 36.832031 90.050781 38.472656 89.652344 39.976562 88.921875 C 42.464844 87.621094 44.269531 85.308594 44.925781 82.578125 C 44.195312 82.328125 43.417969 82.230469 42.648438 82.289062 C 42.796875 82.214844 42.945312 82.140625 43.101562 82.0625 C 45.65625 80.644531 47.421875 78.136719 47.898438 75.257812 C 47.09375 75.109375 46.277344 75.054688 45.460938 75.097656 C 45.84375 74.96875 46.253906 74.820312 46.65625 74.65625 C 49.355469 73.496094 51.304688 71.070312 51.859375 68.183594 C 51.167969 67.992188 50.457031 67.902344 49.738281 67.917969 C 50.109375 67.777344 50.488281 67.609375 50.871094 67.417969 C 53.375 66.152344 55.1875 63.839844 55.816406 61.109375 C 55.167969 60.941406 54.496094 60.863281 53.828125 60.882812 C 54.773438 60.675781 55.695312 60.375 56.582031 59.984375 C 59.152344 58.953125 61.089844 56.785156 61.828125 54.117188 C 61.246094 53.90625 60.636719 53.789062 60.015625 53.769531 C 60.914062 53.566406 61.800781 53.3125 62.671875 53.011719 C 65.210938 52.199219 67.226562 50.25 68.117188 47.738281 C 67.570312 47.6875 66.816406 47.421875 65.84375 47.25 C 67.207031 47.160156 68.550781 46.886719 69.839844 46.433594 C 74.210938 44.960938 75.765625 42.324219 75.84375 41.179688 C 75.429688 40.914062 74.960938 40.746094 74.472656 40.6875 C 75.4375 40.523438 76.386719 40.265625 77.304688 39.917969 C 79.957031 38.730469 82.070312 36.59375 83.230469 33.929688 C 84.039062 33.664062 84.832031 33.355469 85.609375 33.003906 C 86.011719 32.820312 86.40625 32.617188 86.785156 32.390625 C 86.988281 32.542969 87.300781 32.769531 87.777344 33.074219 C 88.390625 33.46875 88.613281 33.5625 88.304688 33.824219 C 77.097656 43.730469 67.378906 55.199219 59.449219 67.878906 C 59.320312 68.082031 59.082031 68.046875 58.695312 68.019531 C 53.824219 67.695312 51.070312 73.488281 53.246094 78.921875 C 52.539062 80.210938 51.601562 81.355469 50.488281 82.308594 C 50.3125 82.464844 49.847656 83.144531 50.636719 83.070312 C 51.769531 82.96875 53.226562 81.144531 53.921875 80.328125 C 54.210938 80.6875 55.28125 81.574219 54.765625 82.085938 C 52.222656 84.601562 49.34375 86.753906 46.210938 88.488281 C 44.664062 89.242188 48.796875 89.765625 55.839844 83.398438 C 56.25 83.023438 56.746094 84.871094 57.378906 85.65625 C 56.167969 89.648438 59.148438 97.355469 58.683594 99.773438 C 58.625 100.691406 57.863281 101.40625 56.945312 101.417969 C 49.964844 101.5625 49.277344 101.242188 45.730469 102.289062 C 44.074219 102.777344 44.503906 103.875 45.710938 103.542969 C 47.070312 103.171875 48.5 102.621094 56.058594 103.089844 C 57.898438 103.203125 60.015625 102.71875 60.023438 99.597656 C 60.035156 96.765625 57.789062 88.339844 58.550781 87.1875 C 59.15625 87.667969 59.890625 87.964844 60.660156 88.039062 C 60.5625 90.789062 64.988281 99.671875 63.015625 104.578125 C 62.28125 106.398438 59.070312 106.261719 53.570312 105.71875 C 44.214844 104.792969 41.175781 106.828125 40.984375 105.695312 Z M 62.480469 111.742188 C 61.316406 112.144531 60.03125 111.890625 59.105469 111.082031 C 58.179688 110.273438 57.761719 109.03125 58.003906 107.828125 C 58.363281 107.277344 60.660156 108.453125 62.449219 107.300781 C 63.824219 106.421875 64.589844 111.007812 62.480469 111.742188 Z M 45.957031 114.398438 C 45.449219 112.148438 45.246094 108.242188 46.183594 107.375 C 46.371094 107.203125 49.171875 106.800781 49.121094 107.441406 C 48.90625 110.128906 47.820312 113.132812 49.867188 116.121094 C 50.628906 117.246094 46.640625 117.417969 45.957031 114.398438 Z M 52.90625 116.972656 C 51.925781 116.730469 49.226562 112.441406 51.425781 107.3125 C 51.652344 106.769531 55.023438 107.105469 55.585938 107.277344 C 56.148438 107.445312 55.125 111.476562 59.746094 113.257812 C 60.214844 113.441406 59.722656 118.664062 52.898438 116.972656 Z M 81.835938 102.667969 C 80.273438 108.078125 79.484375 110.226562 81.835938 116.117188 C 82.148438 116.894531 82.382812 117.484375 81.695312 117.367188 C 76.964844 116.550781 75.945312 115.78125 61.09375 117.039062 C 60.027344 117.128906 61.445312 114.964844 61.269531 113.492188 C 63.109375 113.46875 64.722656 112.253906 65.253906 110.492188 C 65.8125 107.8125 63.941406 105.847656 64.140625 105.460938 C 66.246094 101.351562 64.003906 96.804688 62.222656 89.179688 C 62.054688 88.464844 62.472656 88.160156 62.785156 88.488281 C 72.320312 98.816406 78.398438 100.875 81.6875 101.847656 C 82.003906 101.9375 81.941406 102.308594 81.824219 102.664062 Z M 106.230469 74.480469 C 104.234375 76.242188 101.171875 76.390625 99.933594 77.511719 C 99.289062 78.101562 98.996094 79.027344 99.695312 80.675781 C 100.101562 81.628906 100.375 81.746094 99.007812 82.105469 C 96.78125 82.703125 96.476562 85.617188 93.652344 85.082031 C 92.519531 84.878906 93.332031 85.59375 93.738281 85.632812 C 94.761719 85.851562 95.824219 85.539062 96.570312 84.800781 C 97.179688 84.0625 97.925781 83.445312 98.761719 82.976562 C 99.65625 82.636719 100.566406 82.660156 100.578125 83.328125 C 100.589844 83.84375 99.460938 84.65625 98.984375 84.875 C 99.5625 85.179688 101.332031 86.078125 99.820312 87.105469 C 98.644531 87.90625 97.023438 86.796875 96.789062 86.660156 C 96.4375 86.457031 95.769531 86.558594 95.996094 86.828125 C 96.867188 87.898438 99.214844 87.621094 98.792969 88.1875 C 96.628906 91.101562 98.386719 92.800781 97.734375 95.726562 C 97.0625 98.6875 93.003906 100.308594 89.878906 100.875 C 79.253906 102.796875 68.910156 93.75 62.847656 86.941406 C 63.402344 85.648438 63.332031 83.957031 62.777344 84.5625 C 62.253906 85.128906 62.339844 86.070312 61.078125 86.402344 C 58.644531 87.015625 57.59375 82.785156 56.839844 82.042969 C 53.808594 79.421875 52.847656 75.125 54.472656 71.460938 C 54.996094 70.070312 56.261719 69.097656 57.742188 68.949219 C 59.21875 68.800781 60.65625 69.5 61.449219 70.757812 C 63.289062 73.476562 62.4375 75.03125 63.488281 75.84375 C 64.503906 76.507812 65.8125 76.511719 66.832031 75.859375 C 67.949219 75.550781 67.863281 78.515625 71.6875 78.371094 C 75.792969 78.222656 75.328125 71.835938 75.910156 71.269531 C 81.179688 66.128906 78.488281 61.539062 77.53125 60.476562 C 77.273438 60.1875 78.113281 58.300781 78.425781 58.230469 C 81.019531 57.691406 83.1875 55.914062 84.214844 53.472656 C 84.214844 53.472656 89.355469 53.382812 91.183594 49.679688 C 91.675781 48.691406 93.1875 50.636719 96.621094 47.9375 C 96.75 47.796875 96.945312 47.738281 97.128906 47.78125 C 97.3125 47.824219 97.460938 47.960938 97.515625 48.140625 C 99.722656 53.550781 100.652344 55.050781 100.480469 57.804688 C 100.359375 59.8125 105.835938 70.945312 106.234375 71.902344 C 106.667969 72.957031 106.734375 74.007812 106.226562 74.460938 Z M 106.230469 74.480469 "/>
<path style=" stroke:none;fill-rule:nonzero;fill:rgb(0%,42.352941%,40%);fill-opacity:1;" d="M 93.855469 54.839844 C 90.863281 54.953125 87.386719 58.621094 86.25 59.132812 C 85.058594 59.667969 85.484375 60.003906 86.175781 59.746094 C 87.667969 59.203125 89.792969 56.925781 92.714844 55.863281 C 95.03125 55.027344 94.878906 56.933594 95.75 56.828125 C 96.167969 56.785156 95.578125 54.777344 93.855469 54.839844 Z M 93.855469 54.839844 "/>
<path style=" stroke:none;fill-rule:nonzero;fill:rgb(0%,42.352941%,40%);fill-opacity:1;" d="M 94.53125 57.777344 C 94.285156 57.835938 94.792969 59.113281 93.492188 59.195312 C 90.679688 59.367188 88.449219 62.027344 86.734375 62.832031 C 86.003906 63.226562 85.222656 63.515625 84.40625 63.683594 C 84.179688 63.746094 84.265625 64.039062 84.453125 64.066406 C 91.628906 65.023438 94.382812 64.761719 94.445312 64.5 C 94.558594 64.007812 94.035156 63.761719 94.152344 63.445312 C 94.476562 62.355469 94.511719 61.199219 94.25 60.089844 C 94.117188 59.601562 95.3125 59.929688 95.3125 59.273438 C 95.316406 58.910156 94.953125 57.675781 94.53125 57.777344 Z M 93.429688 63.4375 C 93.292969 64 90.089844 63.742188 88.34375 63.589844 C 87.9375 63.554688 87.234375 63.492188 88.5625 62.699219 C 89.878906 61.753906 91.355469 61.058594 92.921875 60.652344 C 93.164062 60.605469 93.402344 60.765625 93.449219 61.007812 L 93.449219 61.019531 C 93.613281 61.820312 93.609375 62.644531 93.429688 63.441406 Z M 93.429688 63.4375 "/>
<path style=" stroke:none;fill-rule:nonzero;fill:rgb(0%,42.352941%,40%);fill-opacity:1;" d="M 102.789062 73.660156 C 101.527344 73.988281 100.316406 74.503906 99.203125 75.1875 C 98.722656 75.492188 96.480469 76.878906 96.640625 74.6875 C 96.699219 73.921875 97.195312 72.015625 97.183594 71.496094 C 97.164062 70.703125 96.53125 71.015625 96.519531 71.484375 C 96.445312 72.570312 96.285156 73.648438 96.042969 74.707031 C 95.890625 75.304688 96.109375 75.933594 96.605469 76.300781 C 97.097656 76.671875 97.765625 76.703125 98.292969 76.382812 C 99.667969 75.492188 101.160156 74.792969 102.726562 74.308594 C 103.105469 74.234375 103.171875 73.664062 102.789062 73.660156 Z M 102.789062 73.660156 "/>
<path style=" stroke:none;fill-rule:nonzero;fill:rgb(0%,42.352941%,40%);fill-opacity:1;" d="M 61.253906 81.492188 C 60.828125 81.332031 60.945312 82.210938 60.371094 82.105469 C 59.621094 81.980469 60.25 81.300781 59.273438 80.265625 C 58.785156 79.75 57.5625 79.535156 56.660156 78.085938 C 55.226562 75.800781 56.453125 70.703125 58.546875 71.4375 C 59.707031 71.84375 59.503906 74.542969 59.160156 76.375 C 58.953125 77.5 60.699219 78.058594 60.859375 77.664062 C 61.125 77 60.210938 77.066406 60.003906 76.460938 C 59.683594 75.53125 62.15625 71.816406 58.925781 70.738281 C 56.570312 69.945312 55.019531 72.917969 55.300781 76.199219 C 55.390625 78.128906 56.621094 79.820312 58.433594 80.492188 C 59.863281 81.019531 58.773438 82.964844 60.679688 82.972656 C 61.523438 82.992188 61.699219 81.667969 61.253906 81.492188 Z M 61.253906 81.492188 "/>
<path style=" stroke:none;fill-rule:nonzero;fill:rgb(0%,42.352941%,40%);fill-opacity:1;" d="M 80.089844 20.167969 C 80.191406 20.203125 80.304688 20.171875 80.371094 20.089844 L 84.355469 15.046875 C 84.398438 14.992188 84.417969 14.925781 84.410156 14.859375 C 84.402344 14.792969 84.367188 14.734375 84.3125 14.695312 C 84.296875 14.679688 84.277344 14.667969 84.257812 14.660156 C 84.03125 14.566406 83.804688 14.480469 83.578125 14.390625 C 83.476562 14.351562 83.359375 14.382812 83.289062 14.46875 L 79.289062 19.53125 C 79.242188 19.59375 79.226562 19.675781 79.246094 19.753906 C 79.269531 19.832031 79.328125 19.890625 79.402344 19.917969 Z M 80.089844 20.167969 "/>
<path style=" stroke:none;fill-rule:nonzero;fill:rgb(0%,42.352941%,40%);fill-opacity:1;" d="M 72.695312 18.113281 C 72.921875 18.15625 73.148438 18.199219 73.382812 18.25 C 73.5 18.273438 73.617188 18.210938 73.664062 18.097656 L 75.996094 12.328125 C 76.046875 12.199219 75.984375 12.050781 75.855469 12 C 75.84375 11.996094 75.832031 11.992188 75.820312 11.988281 L 75.042969 11.824219 C 74.972656 11.808594 74.902344 11.847656 74.875 11.914062 L 72.511719 17.777344 C 72.484375 17.835938 72.488281 17.90625 72.511719 17.96875 C 72.539062 18.027344 72.589844 18.074219 72.648438 18.101562 C 72.664062 18.105469 72.679688 18.109375 72.695312 18.113281 Z M 72.695312 18.113281 "/>
<path style=" stroke:none;fill-rule:nonzero;fill:rgb(0%,42.352941%,40%);fill-opacity:1;" d="M 64.480469 17.304688 C 64.714844 17.304688 64.945312 17.304688 65.171875 17.320312 C 65.304688 17.320312 65.417969 17.222656 65.429688 17.09375 L 66.007812 10.960938 C 66.019531 10.824219 65.917969 10.703125 65.78125 10.691406 L 65.765625 10.691406 L 65.066406 10.671875 C 64.933594 10.667969 64.824219 10.769531 64.8125 10.898438 L 64.238281 17.027344 C 64.222656 17.164062 64.320312 17.289062 64.457031 17.304688 Z M 64.480469 17.304688 "/>
<path style=" stroke:none;fill-rule:nonzero;fill:rgb(0%,42.352941%,40%);fill-opacity:1;" d="M 56.496094 17.90625 C 56.722656 17.867188 56.953125 17.832031 57.183594 17.800781 C 57.25 17.789062 57.308594 17.753906 57.347656 17.699219 C 57.382812 17.648438 57.398438 17.578125 57.390625 17.515625 L 57.390625 17.503906 L 56.21875 11.464844 C 56.199219 11.328125 56.070312 11.238281 55.9375 11.257812 C 55.710938 11.292969 55.476562 11.332031 55.246094 11.371094 C 55.113281 11.394531 55.019531 11.523438 55.042969 11.660156 L 55.042969 11.667969 L 56.210938 17.703125 C 56.230469 17.835938 56.359375 17.929688 56.492188 17.90625 Z M 56.496094 17.90625 "/>
<path style=" stroke:none;fill-rule:nonzero;fill:rgb(0%,42.352941%,40%);fill-opacity:1;" d="M 48.34375 19.769531 C 48.398438 19.878906 48.527344 19.933594 48.648438 19.894531 C 48.867188 19.816406 49.089844 19.742188 49.308594 19.667969 C 49.371094 19.648438 49.425781 19.601562 49.453125 19.542969 C 49.484375 19.488281 49.488281 19.417969 49.46875 19.355469 C 49.464844 19.34375 49.460938 19.332031 49.453125 19.320312 L 46.691406 13.769531 C 46.632812 13.65625 46.503906 13.601562 46.382812 13.644531 L 45.726562 13.882812 C 45.597656 13.929688 45.53125 14.070312 45.574219 14.199219 L 45.585938 14.226562 Z M 48.34375 19.769531 "/>
<path style=" stroke:none;fill-rule:nonzero;fill:rgb(0%,42.352941%,40%);fill-opacity:1;" d="M 40.726562 23.292969 C 40.804688 23.382812 40.933594 23.402344 41.035156 23.34375 C 41.242188 23.230469 41.445312 23.117188 41.648438 23 C 41.707031 22.964844 41.75 22.914062 41.769531 22.847656 C 41.789062 22.785156 41.78125 22.714844 41.75 22.660156 C 41.742188 22.640625 41.730469 22.628906 41.71875 22.613281 L 37.585938 17.890625 C 37.503906 17.800781 37.371094 17.78125 37.269531 17.84375 C 37.066406 17.964844 36.859375 18.082031 36.65625 18.207031 C 36.539062 18.277344 36.5 18.429688 36.570312 18.546875 C 36.578125 18.558594 36.585938 18.570312 36.597656 18.582031 Z M 40.726562 23.292969 "/>
<path style=" stroke:none;fill-rule:nonzero;fill:rgb(0%,42.352941%,40%);fill-opacity:1;" d="M 33.648438 28.289062 C 33.742188 28.355469 33.863281 28.347656 33.949219 28.277344 L 34.503906 27.816406 C 34.554688 27.773438 34.589844 27.714844 34.59375 27.648438 C 34.601562 27.582031 34.582031 27.515625 34.539062 27.464844 C 34.523438 27.449219 34.507812 27.433594 34.492188 27.417969 L 29.265625 23.789062 C 29.171875 23.722656 29.042969 23.730469 28.957031 23.804688 L 28.414062 24.285156 C 28.3125 24.378906 28.308594 24.535156 28.398438 24.636719 C 28.414062 24.652344 28.425781 24.664062 28.441406 24.675781 Z M 33.648438 28.289062 "/>
<path style=" stroke:none;fill-rule:nonzero;fill:rgb(0%,42.352941%,40%);fill-opacity:1;" d="M 27.480469 34.648438 C 27.578125 34.6875 27.691406 34.65625 27.761719 34.574219 C 27.914062 34.382812 28.070312 34.195312 28.222656 34.007812 C 28.3125 33.902344 28.300781 33.742188 28.195312 33.65625 C 28.171875 33.636719 28.148438 33.625 28.125 33.613281 L 22.121094 31.273438 C 22.019531 31.234375 21.902344 31.265625 21.832031 31.355469 C 21.683594 31.546875 21.535156 31.738281 21.390625 31.933594 C 21.351562 31.984375 21.335938 32.050781 21.34375 32.113281 C 21.351562 32.179688 21.386719 32.238281 21.4375 32.277344 C 21.457031 32.292969 21.480469 32.304688 21.5 32.316406 Z M 27.480469 34.648438 "/>
<path style=" stroke:none;fill-rule:nonzero;fill:rgb(0%,42.352941%,40%);fill-opacity:1;" d="M 16.125 41.21875 L 22.566406 42.117188 C 22.667969 42.128906 22.769531 42.078125 22.816406 41.988281 C 22.929688 41.769531 23.050781 41.550781 23.171875 41.335938 C 23.203125 41.28125 23.210938 41.210938 23.195312 41.148438 C 23.175781 41.082031 23.132812 41.03125 23.074219 40.996094 C 23.046875 40.984375 23.019531 40.972656 22.988281 40.96875 L 16.507812 40.066406 C 16.402344 40.054688 16.300781 40.105469 16.25 40.203125 C 16.136719 40.421875 16.03125 40.640625 15.925781 40.859375 C 15.867188 40.984375 15.917969 41.132812 16.039062 41.191406 C 16.066406 41.207031 16.09375 41.214844 16.125 41.21875 Z M 16.125 41.21875 "/>
<path style=" stroke:none;fill-rule:nonzero;fill:rgb(0%,42.352941%,40%);fill-opacity:1;" d="M 12.601562 50.980469 L 19.171875 50.351562 C 19.269531 50.339844 19.355469 50.273438 19.386719 50.179688 C 19.460938 49.9375 19.535156 49.699219 19.613281 49.460938 C 19.640625 49.382812 19.621094 49.292969 19.570312 49.226562 C 19.515625 49.164062 19.433594 49.128906 19.351562 49.136719 L 12.746094 49.765625 C 12.644531 49.777344 12.554688 49.847656 12.527344 49.949219 C 12.464844 50.1875 12.398438 50.429688 12.335938 50.667969 C 12.300781 50.804688 12.382812 50.9375 12.515625 50.972656 C 12.542969 50.980469 12.570312 50.984375 12.601562 50.980469 Z M 12.601562 50.980469 "/>
<path style=" stroke:none;fill-rule:nonzero;fill:rgb(0%,42.352941%,40%);fill-opacity:1;" d="M 17.582031 58.785156 C 17.613281 58.53125 17.644531 58.273438 17.675781 58.019531 C 17.695312 57.882812 17.597656 57.757812 17.460938 57.738281 C 17.421875 57.734375 17.382812 57.738281 17.347656 57.75 L 10.949219 59.980469 C 10.851562 60.011719 10.785156 60.097656 10.78125 60.199219 C 10.761719 60.449219 10.746094 60.703125 10.730469 60.957031 C 10.730469 61.023438 10.753906 61.085938 10.796875 61.136719 C 10.84375 61.1875 10.90625 61.214844 10.976562 61.21875 C 11.003906 61.21875 11.035156 61.214844 11.066406 61.203125 L 17.417969 58.996094 C 17.507812 58.960938 17.574219 58.882812 17.582031 58.785156 Z M 17.582031 58.785156 "/>
<path style=" stroke:none;fill-rule:nonzero;fill:rgb(0%,42.352941%,40%);fill-opacity:1;" d="M 17.425781 67.523438 C 17.40625 67.261719 17.386719 66.996094 17.371094 66.730469 C 17.367188 66.640625 17.316406 66.5625 17.238281 66.519531 C 17.15625 66.480469 17.0625 66.488281 16.988281 66.539062 L 11.195312 70.34375 C 11.117188 70.394531 11.070312 70.488281 11.082031 70.585938 C 11.117188 70.839844 11.152344 71.09375 11.191406 71.347656 C 11.199219 71.414062 11.234375 71.472656 11.285156 71.511719 C 11.339844 71.554688 11.40625 71.570312 11.472656 71.5625 C 11.507812 71.554688 11.542969 71.542969 11.574219 71.523438 L 17.316406 67.75 C 17.390625 67.699219 17.433594 67.613281 17.425781 67.523438 Z M 17.425781 67.523438 "/>
<path style=" stroke:none;fill-rule:nonzero;fill:rgb(0%,42.352941%,40%);fill-opacity:1;" d="M 18.875 76.257812 C 18.804688 75.988281 18.738281 75.722656 18.671875 75.453125 C 18.65625 75.390625 18.613281 75.332031 18.558594 75.300781 C 18.5 75.265625 18.433594 75.253906 18.371094 75.269531 C 18.320312 75.28125 18.277344 75.308594 18.242188 75.34375 L 13.53125 80.535156 C 13.46875 80.605469 13.449219 80.699219 13.480469 80.785156 C 13.566406 81.035156 13.652344 81.285156 13.742188 81.535156 C 13.765625 81.597656 13.8125 81.648438 13.871094 81.675781 C 13.929688 81.703125 14 81.707031 14.0625 81.683594 C 14.101562 81.667969 14.132812 81.648438 14.160156 81.617188 L 18.820312 76.488281 C 18.875 76.425781 18.894531 76.339844 18.875 76.257812 Z M 18.875 76.257812 "/>
<path style=" stroke:none;fill-rule:nonzero;fill:rgb(0%,42.352941%,40%);fill-opacity:1;" d="M 21.285156 84.011719 L 17.960938 90.339844 C 17.917969 90.414062 17.917969 90.507812 17.960938 90.582031 C 18.097656 90.816406 18.238281 91.050781 18.367188 91.285156 C 18.441406 91.402344 18.59375 91.4375 18.707031 91.367188 C 18.746094 91.34375 18.777344 91.3125 18.796875 91.273438 L 22.082031 85.015625 C 22.117188 84.941406 22.117188 84.859375 22.082031 84.789062 C 21.953125 84.53125 21.828125 84.277344 21.703125 84.019531 C 21.671875 83.964844 21.617188 83.917969 21.554688 83.902344 C 21.488281 83.882812 21.421875 83.890625 21.363281 83.921875 C 21.332031 83.945312 21.304688 83.976562 21.285156 84.011719 Z M 21.285156 84.011719 "/>
<path style=" stroke:none;fill-rule:nonzero;fill:rgb(0%,42.352941%,40%);fill-opacity:1;" d="M 25.960938 91.121094 C 25.902344 91.042969 25.808594 91.003906 25.710938 91.023438 C 25.617188 91.039062 25.542969 91.113281 25.519531 91.207031 L 23.738281 98.550781 C 23.71875 98.632812 23.738281 98.714844 23.789062 98.777344 C 23.976562 98.984375 24.164062 99.207031 24.355469 99.417969 C 24.449219 99.523438 24.605469 99.53125 24.710938 99.441406 C 24.746094 99.40625 24.773438 99.363281 24.785156 99.3125 L 26.546875 92.050781 C 26.5625 91.980469 26.546875 91.90625 26.503906 91.847656 C 26.316406 91.601562 26.136719 91.359375 25.960938 91.121094 Z M 25.960938 91.121094 "/>
</g>
</svg>
